STARTFONT 2.1
COMMENT
COMMENT Converted from OpenType font "pixelade.ttf" by "otf2bdf 3.0".
COMMENT
FONT -FreeType-Pixelade-Medium-R-Normal--17-120-100-100-P-58-ISO10646-1
SIZE 12 100 100
FONTBOUNDINGBOX 87 18 -1 -4
STARTPROPERTIES 19
FOUNDRY "FreeType"
FAMILY_NAME "Pixelade"
WEIGHT_NAME "Medium"
SLANT "R"
SETWIDTH_NAME "Normal"
ADD_STYLE_NAME ""
PIXEL_SIZE 17
POINT_SIZE 120
RESOLUTION_X 100
RESOLUTION_Y 100
SPACING "P"
AVERAGE_WIDTH 58
CHARSET_REGISTRY "ISO10646"
CHARSET_ENCODING "1"
FONT_ASCENT 13
FONT_DESCENT 3
COPYRIGHT "© 2001  josep Patau i Bellart & astramatantaviana typeface division  patau@antaviana.com, this typeface is Publishware, submit your works please, more info in www.astramat.com/typeface"
_OTF_FONTFILE "pixelade.ttf"
_OTF_PSNAME "Pixelade"
ENDPROPERTIES
CHARS 158
STARTCHAR 0020
ENCODING 32
SWIDTH 240 0
DWIDTH 4 0
BBX 0 0 0 0
BITMAP
ENDCHAR
STARTCHAR 0021
ENCODING 33
SWIDTH 120 0
DWIDTH 2 0
BBX 1 13 0 -3
BITMAP
80
80
80
80
80
80
80
80
80
80
00
00
80
ENDCHAR
STARTCHAR 0022
ENCODING 34
SWIDTH 300 0
DWIDTH 5 0
BBX 4 4 0 10
BITMAP
90
90
90
90
ENDCHAR
STARTCHAR 0023
ENCODING 35
SWIDTH 660 0
DWIDTH 11 0
BBX 9 10 0 0
BITMAP
1200
1200
1200
FF80
1200
1200
FF80
1200
1200
1200
ENDCHAR
STARTCHAR 0024
ENCODING 36
SWIDTH 480 0
DWIDTH 8 0
BBX 6 13 1 -2
BITMAP
10
7C
90
90
90
78
18
14
14
14
F8
10
10
ENDCHAR
STARTCHAR 0025
ENCODING 37
SWIDTH 600 0
DWIDTH 10 0
BBX 9 10 0 0
BITMAP
4080
0000
9200
4400
0800
0000
1200
4480
0000
8200
ENDCHAR
STARTCHAR 0026
ENCODING 38
SWIDTH 600 0
DWIDTH 10 0
BBX 9 10 0 0
BITMAP
0400
0000
0900
0400
E900
0000
1080
1080
1080
2F00
ENDCHAR
STARTCHAR 0027
ENCODING 39
SWIDTH 180 0
DWIDTH 3 0
BBX 1 4 1 6
BITMAP
80
80
80
80
ENDCHAR
STARTCHAR 0028
ENCODING 40
SWIDTH 300 0
DWIDTH 5 0
BBX 4 18 0 -4
BITMAP
30
00
40
80
80
80
80
80
80
80
80
80
80
80
80
80
40
30
ENDCHAR
STARTCHAR 0029
ENCODING 41
SWIDTH 300 0
DWIDTH 5 0
BBX 4 18 0 -4
BITMAP
80
00
40
30
30
30
30
30
30
30
30
30
30
30
30
30
40
80
ENDCHAR
STARTCHAR 002A
ENCODING 42
SWIDTH 480 0
DWIDTH 8 0
BBX 7 7 0 7
BITMAP
10
92
10
7C
92
10
10
ENDCHAR
STARTCHAR 002B
ENCODING 43
SWIDTH 420 0
DWIDTH 7 0
BBX 6 7 0 0
BITMAP
10
10
10
FC
10
10
10
ENDCHAR
STARTCHAR 002C
ENCODING 44
SWIDTH 180 0
DWIDTH 3 0
BBX 2 4 0 -1
BITMAP
40
40
40
80
ENDCHAR
STARTCHAR 002D
ENCODING 45
SWIDTH 360 0
DWIDTH 6 0
BBX 5 1 0 5
BITMAP
F8
ENDCHAR
STARTCHAR 002E
ENCODING 46
SWIDTH 120 0
DWIDTH 2 0
BBX 1 1 0 0
BITMAP
80
ENDCHAR
STARTCHAR 002F
ENCODING 47
SWIDTH 600 0
DWIDTH 10 0
BBX 9 10 0 0
BITMAP
0080
0000
0200
0400
0800
0000
1000
4000
0000
8000
ENDCHAR
STARTCHAR 0030
ENCODING 48
SWIDTH 420 0
DWIDTH 7 0
BBX 5 10 1 0
BITMAP
70
00
88
88
88
88
88
88
88
70
ENDCHAR
STARTCHAR 0031
ENCODING 49
SWIDTH 240 0
DWIDTH 4 0
BBX 3 10 0 0
BITMAP
20
20
E0
20
20
20
20
20
20
20
ENDCHAR
STARTCHAR 0032
ENCODING 50
SWIDTH 420 0
DWIDTH 7 0
BBX 5 10 1 0
BITMAP
F0
10
08
08
70
80
80
80
80
F8
ENDCHAR
STARTCHAR 0033
ENCODING 51
SWIDTH 420 0
DWIDTH 7 0
BBX 5 10 1 0
BITMAP
F0
00
08
08
70
00
08
08
08
F0
ENDCHAR
STARTCHAR 0034
ENCODING 52
SWIDTH 420 0
DWIDTH 7 0
BBX 5 10 1 0
BITMAP
88
88
88
88
78
08
08
08
08
08
ENDCHAR
STARTCHAR 0035
ENCODING 53
SWIDTH 420 0
DWIDTH 7 0
BBX 5 10 1 0
BITMAP
F8
80
80
80
F0
10
08
08
08
F0
ENDCHAR
STARTCHAR 0036
ENCODING 54
SWIDTH 420 0
DWIDTH 7 0
BBX 5 10 1 0
BITMAP
70
80
80
80
F0
90
88
88
88
70
ENDCHAR
STARTCHAR 0037
ENCODING 55
SWIDTH 360 0
DWIDTH 6 0
BBX 5 10 0 0
BITMAP
F8
08
08
08
10
10
10
10
10
10
ENDCHAR
STARTCHAR 0038
ENCODING 56
SWIDTH 420 0
DWIDTH 7 0
BBX 5 10 1 0
BITMAP
70
00
88
88
70
00
88
88
88
70
ENDCHAR
STARTCHAR 0039
ENCODING 57
SWIDTH 420 0
DWIDTH 7 0
BBX 5 10 1 0
BITMAP
70
90
88
88
78
08
08
08
08
70
ENDCHAR
STARTCHAR 003A
ENCODING 58
SWIDTH 180 0
DWIDTH 3 0
BBX 1 6 1 0
BITMAP
80
00
00
00
00
80
ENDCHAR
STARTCHAR 003B
ENCODING 59
SWIDTH 180 0
DWIDTH 3 0
BBX 2 7 0 -1
BITMAP
40
00
00
40
40
40
80
ENDCHAR
STARTCHAR 003C
ENCODING 60
SWIDTH 420 0
DWIDTH 7 0
BBX 5 10 1 0
BITMAP
08
00
10
40
80
00
40
10
00
08
ENDCHAR
STARTCHAR 003D
ENCODING 61
SWIDTH 420 0
DWIDTH 7 0
BBX 6 4 0 3
BITMAP
FC
00
00
FC
ENDCHAR
STARTCHAR 003E
ENCODING 62
SWIDTH 420 0
DWIDTH 7 0
BBX 5 10 1 0
BITMAP
80
00
40
10
08
00
10
40
00
80
ENDCHAR
STARTCHAR 003F
ENCODING 63
SWIDTH 420 0
DWIDTH 7 0
BBX 5 10 1 0
BITMAP
70
00
88
08
10
00
40
00
00
40
ENDCHAR
STARTCHAR 0040
ENCODING 64
SWIDTH 600 0
DWIDTH 10 0
BBX 9 10 0 -3
BITMAP
1F00
0000
4080
8C80
9480
9480
8F00
4000
2000
1F80
ENDCHAR
STARTCHAR 0041
ENCODING 65
SWIDTH 420 0
DWIDTH 7 0
BBX 5 10 1 0
BITMAP
70
90
88
88
F8
88
88
88
88
88
ENDCHAR
STARTCHAR 0042
ENCODING 66
SWIDTH 420 0
DWIDTH 7 0
BBX 5 10 1 0
BITMAP
F0
90
88
88
F0
90
88
88
88
F0
ENDCHAR
STARTCHAR 0043
ENCODING 67
SWIDTH 420 0
DWIDTH 7 0
BBX 5 10 1 0
BITMAP
78
00
80
80
80
80
80
80
80
78
ENDCHAR
STARTCHAR 0044
ENCODING 68
SWIDTH 420 0
DWIDTH 7 0
BBX 5 10 1 0
BITMAP
F0
90
88
88
88
88
88
88
88
F0
ENDCHAR
STARTCHAR 0045
ENCODING 69
SWIDTH 360 0
DWIDTH 6 0
BBX 5 10 0 0
BITMAP
F8
80
80
80
F0
80
80
80
80
F8
ENDCHAR
STARTCHAR 0046
ENCODING 70
SWIDTH 360 0
DWIDTH 6 0
BBX 5 10 0 0
BITMAP
F8
80
80
80
F8
80
80
80
80
80
ENDCHAR
STARTCHAR 0047
ENCODING 71
SWIDTH 420 0
DWIDTH 7 0
BBX 5 10 1 0
BITMAP
78
80
80
80
B8
88
88
88
88
70
ENDCHAR
STARTCHAR 0048
ENCODING 72
SWIDTH 420 0
DWIDTH 7 0
BBX 5 10 1 0
BITMAP
88
88
88
88
F8
88
88
88
88
88
ENDCHAR
STARTCHAR 0049
ENCODING 73
SWIDTH 300 0
DWIDTH 5 0
BBX 4 10 0 0
BITMAP
F0
20
20
20
20
20
20
20
20
F0
ENDCHAR
STARTCHAR 004A
ENCODING 74
SWIDTH 420 0
DWIDTH 7 0
BBX 5 10 1 0
BITMAP
08
08
08
08
08
88
88
88
00
70
ENDCHAR
STARTCHAR 004B
ENCODING 75
SWIDTH 420 0
DWIDTH 7 0
BBX 5 10 1 0
BITMAP
88
88
88
90
E0
A0
90
88
88
88
ENDCHAR
STARTCHAR 004C
ENCODING 76
SWIDTH 420 0
DWIDTH 7 0
BBX 5 10 1 0
BITMAP
80
80
80
80
80
80
80
80
80
F8
ENDCHAR
STARTCHAR 004D
ENCODING 77
SWIDTH 480 0
DWIDTH 8 0
BBX 7 10 0 0
BITMAP
82
82
C6
BA
82
82
82
82
82
82
ENDCHAR
STARTCHAR 004E
ENCODING 78
SWIDTH 420 0
DWIDTH 7 0
BBX 6 10 0 0
BITMAP
E4
E4
E4
94
94
94
94
8C
8C
8C
ENDCHAR
STARTCHAR 004F
ENCODING 79
SWIDTH 420 0
DWIDTH 7 0
BBX 6 10 0 0
BITMAP
78
00
84
84
84
84
84
84
84
78
ENDCHAR
STARTCHAR 0050
ENCODING 80
SWIDTH 420 0
DWIDTH 7 0
BBX 5 10 1 0
BITMAP
F0
90
88
88
F0
80
80
80
80
80
ENDCHAR
STARTCHAR 0051
ENCODING 81
SWIDTH 420 0
DWIDTH 7 0
BBX 5 12 1 -2
BITMAP
70
90
88
88
88
88
88
88
88
70
10
10
ENDCHAR
STARTCHAR 0052
ENCODING 82
SWIDTH 420 0
DWIDTH 7 0
BBX 5 10 1 0
BITMAP
F0
90
88
88
F0
90
88
88
88
88
ENDCHAR
STARTCHAR 0053
ENCODING 83
SWIDTH 420 0
DWIDTH 7 0
BBX 5 10 1 0
BITMAP
78
00
80
80
70
00
08
08
08
F0
ENDCHAR
STARTCHAR 0054
ENCODING 84
SWIDTH 480 0
DWIDTH 8 0
BBX 6 10 1 0
BITMAP
FC
10
10
10
10
10
10
10
10
10
ENDCHAR
STARTCHAR 0055
ENCODING 85
SWIDTH 420 0
DWIDTH 7 0
BBX 5 10 1 0
BITMAP
88
88
88
88
88
88
88
88
00
70
ENDCHAR
STARTCHAR 0056
ENCODING 86
SWIDTH 420 0
DWIDTH 7 0
BBX 6 10 0 0
BITMAP
84
84
84
84
48
48
48
48
00
10
ENDCHAR
STARTCHAR 0057
ENCODING 87
SWIDTH 600 0
DWIDTH 10 0
BBX 9 10 0 0
BITMAP
8080
8080
8080
8880
4A00
4A00
4A00
4A00
4A00
7700
ENDCHAR
STARTCHAR 0058
ENCODING 88
SWIDTH 420 0
DWIDTH 7 0
BBX 6 10 0 0
BITMAP
84
00
48
48
10
00
48
48
48
84
ENDCHAR
STARTCHAR 0059
ENCODING 89
SWIDTH 420 0
DWIDTH 7 0
BBX 6 10 0 0
BITMAP
84
84
84
48
48
48
10
10
10
10
ENDCHAR
STARTCHAR 005A
ENCODING 90
SWIDTH 420 0
DWIDTH 7 0
BBX 6 10 0 0
BITMAP
FC
04
04
08
10
20
40
80
80
FC
ENDCHAR
STARTCHAR 005B
ENCODING 91
SWIDTH 300 0
DWIDTH 5 0
BBX 4 18 0 -4
BITMAP
F0
80
80
80
80
80
80
80
80
80
80
80
80
80
80
80
80
F0
ENDCHAR
STARTCHAR 005C
ENCODING 92
SWIDTH 600 0
DWIDTH 10 0
BBX 9 10 0 0
BITMAP
8000
0000
4000
1000
0800
0000
0400
0200
0000
0080
ENDCHAR
STARTCHAR 005D
ENCODING 93
SWIDTH 300 0
DWIDTH 5 0
BBX 4 18 0 -4
BITMAP
F0
10
10
10
10
10
10
10
10
10
10
10
10
10
10
10
10
F0
ENDCHAR
STARTCHAR 005E
ENCODING 94
SWIDTH 300 0
DWIDTH 5 0
BBX 0 0 0 0
BITMAP
ENDCHAR
STARTCHAR 005F
ENCODING 95
SWIDTH 420 0
DWIDTH 7 0
BBX 5 1 1 0
BITMAP
F8
ENDCHAR
STARTCHAR 0060
ENCODING 96
SWIDTH 240 0
DWIDTH 4 0
BBX 2 3 0 7
BITMAP
80
80
C0
ENDCHAR
STARTCHAR 0061
ENCODING 97
SWIDTH 360 0
DWIDTH 6 0
BBX 5 7 0 0
BITMAP
70
08
08
78
88
88
78
ENDCHAR
STARTCHAR 0062
ENCODING 98
SWIDTH 360 0
DWIDTH 6 0
BBX 5 10 0 0
BITMAP
80
80
80
F0
88
88
88
88
90
F0
ENDCHAR
STARTCHAR 0063
ENCODING 99
SWIDTH 360 0
DWIDTH 6 0
BBX 5 7 0 0
BITMAP
78
80
80
80
80
80
78
ENDCHAR
STARTCHAR 0064
ENCODING 100
SWIDTH 420 0
DWIDTH 7 0
BBX 5 10 1 0
BITMAP
08
08
08
78
88
88
88
88
88
78
ENDCHAR
STARTCHAR 0065
ENCODING 101
SWIDTH 360 0
DWIDTH 6 0
BBX 5 7 0 0
BITMAP
70
88
90
F0
80
80
70
ENDCHAR
STARTCHAR 0066
ENCODING 102
SWIDTH 420 0
DWIDTH 7 0
BBX 5 10 1 0
BITMAP
18
20
20
F0
20
20
20
20
20
20
ENDCHAR
STARTCHAR 0067
ENCODING 103
SWIDTH 420 0
DWIDTH 7 0
BBX 5 10 1 -3
BITMAP
70
90
88
88
88
88
78
08
08
70
ENDCHAR
STARTCHAR 0068
ENCODING 104
SWIDTH 420 0
DWIDTH 7 0
BBX 5 10 1 0
BITMAP
80
80
80
F0
88
88
88
88
88
88
ENDCHAR
STARTCHAR 0069
ENCODING 105
SWIDTH 180 0
DWIDTH 3 0
BBX 1 10 1 0
BITMAP
80
00
00
80
80
80
80
80
80
80
ENDCHAR
STARTCHAR 006A
ENCODING 106
SWIDTH 180 0
DWIDTH 3 0
BBX 2 13 0 -3
BITMAP
40
00
00
40
40
40
40
40
40
40
40
00
80
ENDCHAR
STARTCHAR 006B
ENCODING 107
SWIDTH 420 0
DWIDTH 7 0
BBX 5 10 1 0
BITMAP
80
80
88
90
E0
A0
90
88
88
88
ENDCHAR
STARTCHAR 006C
ENCODING 108
SWIDTH 180 0
DWIDTH 3 0
BBX 1 10 1 0
BITMAP
80
80
80
80
80
80
80
80
80
80
ENDCHAR
STARTCHAR 006D
ENCODING 109
SWIDTH 600 0
DWIDTH 10 0
BBX 9 7 0 0
BITMAP
FF00
8880
8880
8880
8880
8880
8880
ENDCHAR
STARTCHAR 006E
ENCODING 110
SWIDTH 420 0
DWIDTH 7 0
BBX 5 7 1 0
BITMAP
F0
88
88
88
88
88
88
ENDCHAR
STARTCHAR 006F
ENCODING 111
SWIDTH 360 0
DWIDTH 6 0
BBX 5 7 0 0
BITMAP
70
88
88
88
88
00
70
ENDCHAR
STARTCHAR 0070
ENCODING 112
SWIDTH 360 0
DWIDTH 6 0
BBX 5 10 0 -3
BITMAP
F0
90
88
88
88
88
F0
80
80
80
ENDCHAR
STARTCHAR 0071
ENCODING 113
SWIDTH 420 0
DWIDTH 7 0
BBX 5 10 1 -3
BITMAP
78
88
88
88
88
88
78
08
08
08
ENDCHAR
STARTCHAR 0072
ENCODING 114
SWIDTH 360 0
DWIDTH 6 0
BBX 5 7 0 0
BITMAP
B8
C0
80
80
80
80
80
ENDCHAR
STARTCHAR 0073
ENCODING 115
SWIDTH 360 0
DWIDTH 6 0
BBX 5 7 0 0
BITMAP
78
80
00
70
08
00
F0
ENDCHAR
STARTCHAR 0074
ENCODING 116
SWIDTH 180 0
DWIDTH 3 0
BBX 2 10 0 0
BITMAP
80
80
80
C0
80
80
80
80
80
40
ENDCHAR
STARTCHAR 0075
ENCODING 117
SWIDTH 360 0
DWIDTH 6 0
BBX 5 7 0 0
BITMAP
88
88
88
88
88
88
78
ENDCHAR
STARTCHAR 0076
ENCODING 118
SWIDTH 360 0
DWIDTH 6 0
BBX 5 7 0 0
BITMAP
88
88
88
88
48
00
10
ENDCHAR
STARTCHAR 0077
ENCODING 119
SWIDTH 600 0
DWIDTH 10 0
BBX 9 7 0 0
BITMAP
8080
8080
8880
8880
8880
8880
7700
ENDCHAR
STARTCHAR 0078
ENCODING 120
SWIDTH 420 0
DWIDTH 7 0
BBX 6 7 0 0
BITMAP
84
48
00
10
48
00
84
ENDCHAR
STARTCHAR 0079
ENCODING 121
SWIDTH 420 0
DWIDTH 7 0
BBX 5 10 1 -3
BITMAP
88
88
88
88
88
88
78
08
10
70
ENDCHAR
STARTCHAR 007A
ENCODING 122
SWIDTH 360 0
DWIDTH 6 0
BBX 5 7 0 0
BITMAP
F8
08
08
70
80
80
F8
ENDCHAR
STARTCHAR 007B
ENCODING 123
SWIDTH 300 0
DWIDTH 5 0
BBX 3 10 0 0
BITMAP
60
40
40
40
80
40
40
40
40
60
ENDCHAR
STARTCHAR 007C
ENCODING 124
SWIDTH 180 0
DWIDTH 3 0
BBX 1 10 1 0
BITMAP
80
80
80
80
80
80
80
80
80
80
ENDCHAR
STARTCHAR 007D
ENCODING 125
SWIDTH 240 0
DWIDTH 4 0
BBX 4 10 -1 0
BITMAP
E0
20
20
20
10
20
20
20
20
E0
ENDCHAR
STARTCHAR 007E
ENCODING 126
SWIDTH 360 0
DWIDTH 6 0
BBX 0 0 0 0
BITMAP
ENDCHAR
STARTCHAR 00A0
ENCODING 160
SWIDTH 360 0
DWIDTH 6 0
BBX 0 0 0 0
BITMAP
ENDCHAR
STARTCHAR 00A1
ENCODING 161
SWIDTH 120 0
DWIDTH 2 0
BBX 1 13 0 0
BITMAP
80
00
00
80
80
80
80
80
80
80
80
80
80
ENDCHAR
STARTCHAR 00A8
ENCODING 168
SWIDTH 300 0
DWIDTH 5 0
BBX 4 1 0 9
BITMAP
B0
ENDCHAR
STARTCHAR 00A9
ENCODING 169
SWIDTH 660 0
DWIDTH 11 0
BBX 10 9 0 0
BITMAP
1F00
4080
8C40
8040
9040
8C40
0000
4080
1F00
ENDCHAR
STARTCHAR 00AA
ENCODING 170
SWIDTH 300 0
DWIDTH 5 0
BBX 4 6 0 3
BITMAP
70
90
90
70
00
F0
ENDCHAR
STARTCHAR 00AB
ENCODING 171
SWIDTH 720 0
DWIDTH 12 0
BBX 10 10 1 0
BITMAP
0840
0000
1080
4200
8400
0000
4200
1080
0000
0840
ENDCHAR
STARTCHAR 00AE
ENCODING 174
SWIDTH 720 0
DWIDTH 12 0
BBX 10 9 1 0
BITMAP
3E00
4080
8C40
8C40
8C40
8A40
0000
4080
3E00
ENDCHAR
STARTCHAR 00B4
ENCODING 180
SWIDTH 180 0
DWIDTH 3 0
BBX 2 2 0 7
BITMAP
40
80
ENDCHAR
STARTCHAR 00B7
ENCODING 183
SWIDTH 300 0
DWIDTH 5 0
BBX 4 4 0 3
BITMAP
20
F0
20
20
ENDCHAR
STARTCHAR 00BA
ENCODING 186
SWIDTH 300 0
DWIDTH 5 0
BBX 4 6 0 3
BITMAP
60
90
90
60
00
F0
ENDCHAR
STARTCHAR 00BB
ENCODING 187
SWIDTH 720 0
DWIDTH 12 0
BBX 10 10 1 0
BITMAP
8400
0000
4200
1080
0840
0000
1080
4200
0000
8400
ENDCHAR
STARTCHAR 00BF
ENCODING 191
SWIDTH 420 0
DWIDTH 7 0
BBX 5 10 1 0
BITMAP
10
00
00
10
40
80
80
88
00
70
ENDCHAR
STARTCHAR 00C0
ENCODING 192
SWIDTH 420 0
DWIDTH 7 0
BBX 5 14 1 0
BITMAP
40
10
00
00
70
90
88
88
F8
88
88
88
88
88
ENDCHAR
STARTCHAR 00C1
ENCODING 193
SWIDTH 360 0
DWIDTH 6 0
BBX 5 14 0 0
BITMAP
08
10
00
00
70
90
88
88
F8
88
88
88
88
88
ENDCHAR
STARTCHAR 00C4
ENCODING 196
SWIDTH 360 0
DWIDTH 6 0
BBX 5 13 0 0
BITMAP
48
00
00
70
90
88
88
F8
88
88
88
88
88
ENDCHAR
STARTCHAR 00C5
ENCODING 197
SWIDTH 5280 0
DWIDTH 88 0
BBX 86 13 0 -3
BITMAP
241E000000100000000010
643F000000100000000010
4C61800000100000000010
C8DC803C1E797785CC3C3C
98BEC07E3611FFC7F67E3C
90B3404223118844224210
90A14006381100C4220610
90A1403E1E1107C4223E10
99A3C06207110C44226210
CF62C04221110844224210
46C78046231108C4224610
3185807F9E190FE4227F1C
1F05000000000000000000
ENDCHAR
STARTCHAR 00C7
ENCODING 199
SWIDTH 360 0
DWIDTH 6 0
BBX 5 14 0 -4
BITMAP
78
80
80
80
80
80
80
80
80
78
10
10
60
30
ENDCHAR
STARTCHAR 00C8
ENCODING 200
SWIDTH 360 0
DWIDTH 6 0
BBX 5 14 0 0
BITMAP
40
30
00
00
F8
80
80
80
F0
80
80
80
80
F8
ENDCHAR
STARTCHAR 00C9
ENCODING 201
SWIDTH 360 0
DWIDTH 6 0
BBX 5 14 0 0
BITMAP
08
10
00
00
F8
80
80
80
F0
80
80
80
80
F8
ENDCHAR
STARTCHAR 00CB
ENCODING 203
SWIDTH 360 0
DWIDTH 6 0
BBX 5 13 0 0
BITMAP
48
00
00
F8
80
80
80
F0
80
80
80
80
F8
ENDCHAR
STARTCHAR 00CC
ENCODING 204
SWIDTH 300 0
DWIDTH 5 0
BBX 4 14 0 0
BITMAP
80
40
00
00
F0
40
40
40
40
40
40
40
40
F0
ENDCHAR
STARTCHAR 00CD
ENCODING 205
SWIDTH 300 0
DWIDTH 5 0
BBX 4 14 0 0
BITMAP
10
20
00
00
F0
20
20
20
20
20
20
20
20
F0
ENDCHAR
STARTCHAR 00CF
ENCODING 207
SWIDTH 300 0
DWIDTH 5 0
BBX 4 13 0 0
BITMAP
B0
00
00
F0
40
40
40
40
40
40
40
40
F0
ENDCHAR
STARTCHAR 00D1
ENCODING 209
SWIDTH 480 0
DWIDTH 8 0
BBX 6 13 1 0
BITMAP
F8
00
00
E4
E4
E4
94
94
94
94
8C
8C
8C
ENDCHAR
STARTCHAR 00D2
ENCODING 210
SWIDTH 420 0
DWIDTH 7 0
BBX 6 14 0 0
BITMAP
40
10
00
00
78
00
84
84
84
84
84
84
84
78
ENDCHAR
STARTCHAR 00D3
ENCODING 211
SWIDTH 420 0
DWIDTH 7 0
BBX 6 14 0 0
BITMAP
08
10
00
00
78
00
84
84
84
84
84
84
84
78
ENDCHAR
STARTCHAR 00D6
ENCODING 214
SWIDTH 420 0
DWIDTH 7 0
BBX 6 13 0 0
BITMAP
48
00
00
78
00
84
84
84
84
84
84
84
78
ENDCHAR
STARTCHAR 00D9
ENCODING 217
SWIDTH 360 0
DWIDTH 6 0
BBX 5 14 0 0
BITMAP
40
10
00
00
88
88
88
88
88
88
88
88
00
70
ENDCHAR
STARTCHAR 00DA
ENCODING 218
SWIDTH 420 0
DWIDTH 7 0
BBX 5 14 1 0
BITMAP
08
10
00
00
88
88
88
88
88
88
88
88
00
70
ENDCHAR
STARTCHAR 00DC
ENCODING 220
SWIDTH 420 0
DWIDTH 7 0
BBX 5 13 1 0
BITMAP
48
00
00
88
88
88
88
88
88
88
88
00
70
ENDCHAR
STARTCHAR 00E0
ENCODING 224
SWIDTH 360 0
DWIDTH 6 0
BBX 5 11 0 0
BITMAP
40
10
00
00
70
08
08
78
88
88
78
ENDCHAR
STARTCHAR 00E1
ENCODING 225
SWIDTH 360 0
DWIDTH 6 0
BBX 5 11 0 0
BITMAP
08
10
00
00
70
08
08
78
88
88
78
ENDCHAR
STARTCHAR 00E2
ENCODING 226
SWIDTH 360 0
DWIDTH 6 0
BBX 0 0 0 0
BITMAP
ENDCHAR
STARTCHAR 00E3
ENCODING 227
SWIDTH 360 0
DWIDTH 6 0
BBX 0 0 0 0
BITMAP
ENDCHAR
STARTCHAR 00E4
ENCODING 228
SWIDTH 420 0
DWIDTH 7 0
BBX 5 10 1 0
BITMAP
48
00
00
70
08
08
78
88
88
78
ENDCHAR
STARTCHAR 00E5
ENCODING 229
SWIDTH 360 0
DWIDTH 6 0
BBX 0 0 0 0
BITMAP
ENDCHAR
STARTCHAR 00E7
ENCODING 231
SWIDTH 420 0
DWIDTH 7 0
BBX 5 10 1 -3
BITMAP
78
80
80
80
80
80
78
10
10
60
ENDCHAR
STARTCHAR 00E8
ENCODING 232
SWIDTH 420 0
DWIDTH 7 0
BBX 5 11 1 0
BITMAP
40
10
00
00
70
88
90
F0
80
80
70
ENDCHAR
STARTCHAR 00E9
ENCODING 233
SWIDTH 420 0
DWIDTH 7 0
BBX 5 11 1 0
BITMAP
08
10
00
00
70
88
90
F0
80
80
70
ENDCHAR
STARTCHAR 00EB
ENCODING 235
SWIDTH 420 0
DWIDTH 7 0
BBX 5 10 1 0
BITMAP
90
00
00
70
88
90
F0
80
80
70
ENDCHAR
STARTCHAR 00EC
ENCODING 236
SWIDTH 180 0
DWIDTH 3 0
BBX 2 11 0 0
BITMAP
80
40
00
00
40
40
40
40
40
40
40
ENDCHAR
STARTCHAR 00ED
ENCODING 237
SWIDTH 240 0
DWIDTH 4 0
BBX 2 11 1 0
BITMAP
40
80
00
00
80
80
80
80
80
80
80
ENDCHAR
STARTCHAR 00EF
ENCODING 239
SWIDTH 300 0
DWIDTH 5 0
BBX 4 10 0 0
BITMAP
B0
00
00
40
40
40
40
40
40
40
ENDCHAR
STARTCHAR 00F1
ENCODING 241
SWIDTH 420 0
DWIDTH 7 0
BBX 5 10 1 0
BITMAP
F0
00
00
F0
88
88
88
88
88
88
ENDCHAR
STARTCHAR 00F2
ENCODING 242
SWIDTH 360 0
DWIDTH 6 0
BBX 5 11 0 0
BITMAP
40
10
00
00
70
88
88
88
88
00
70
ENDCHAR
STARTCHAR 00F3
ENCODING 243
SWIDTH 360 0
DWIDTH 6 0
BBX 5 11 0 0
BITMAP
08
10
00
00
70
00
88
88
88
88
70
ENDCHAR
STARTCHAR 00F6
ENCODING 246
SWIDTH 420 0
DWIDTH 7 0
BBX 5 10 1 0
BITMAP
90
00
00
70
88
88
88
88
00
70
ENDCHAR
STARTCHAR 00F7
ENCODING 247
SWIDTH 420 0
DWIDTH 7 0
BBX 6 7 0 2
BITMAP
10
00
00
FC
00
00
10
ENDCHAR
STARTCHAR 00F9
ENCODING 249
SWIDTH 420 0
DWIDTH 7 0
BBX 5 11 1 0
BITMAP
40
10
00
00
88
88
88
88
88
88
70
ENDCHAR
STARTCHAR 00FA
ENCODING 250
SWIDTH 420 0
DWIDTH 7 0
BBX 5 11 1 0
BITMAP
08
10
00
00
88
88
88
88
88
88
70
ENDCHAR
STARTCHAR 00FC
ENCODING 252
SWIDTH 420 0
DWIDTH 7 0
BBX 5 10 1 0
BITMAP
48
00
00
88
88
88
88
88
88
70
ENDCHAR
STARTCHAR 0131
ENCODING 305
SWIDTH 180 0
DWIDTH 3 0
BBX 1 4 1 6
BITMAP
80
80
80
80
ENDCHAR
STARTCHAR 02D9
ENCODING 729
SWIDTH 300 0
DWIDTH 5 0
BBX 4 4 0 3
BITMAP
20
F0
20
20
ENDCHAR
STARTCHAR 2010
ENCODING 8208
SWIDTH 360 0
DWIDTH 6 0
BBX 5 1 0 5
BITMAP
F8
ENDCHAR
STARTCHAR 2022
ENCODING 8226
SWIDTH 360 0
DWIDTH 6 0
BBX 5 6 0 1
BITMAP
70
70
F8
F8
F8
70
ENDCHAR
STARTCHAR 2026
ENCODING 8230
SWIDTH 480 0
DWIDTH 8 0
BBX 7 1 0 0
BITMAP
92
ENDCHAR
STARTCHAR 2039
ENCODING 8249
SWIDTH 600 0
DWIDTH 10 0
BBX 8 10 0 0
BITMAP
FF
81
81
9D
BD
9D
9D
81
81
FF
ENDCHAR
STARTCHAR 203A
ENCODING 8250
SWIDTH 720 0
DWIDTH 12 0
BBX 9 10 0 0
BITMAP
FF80
8080
8080
B880
BC80
B880
B880
8080
8080
FF80
ENDCHAR
STARTCHAR 2219
ENCODING 8729
SWIDTH 300 0
DWIDTH 5 0
BBX 4 4 0 3
BITMAP
20
F0
20
20
ENDCHAR
STARTCHAR 2264
ENCODING 8804
SWIDTH 360 0
DWIDTH 6 0
BBX 4 6 0 1
BITMAP
10
30
F0
30
30
10
ENDCHAR
STARTCHAR 2265
ENCODING 8805
SWIDTH 360 0
DWIDTH 6 0
BBX 4 6 0 1
BITMAP
80
C0
F0
C0
C0
80
ENDCHAR
STARTCHAR F001
ENCODING 61441
SWIDTH 360 0
DWIDTH 6 0
BBX 5 9 0 0
BITMAP
08
18
18
78
F8
78
18
18
08
ENDCHAR
STARTCHAR F002
ENCODING 61442
SWIDTH 360 0
DWIDTH 6 0
BBX 5 9 0 0
BITMAP
80
C0
C0
F0
F8
F0
C0
C0
80
ENDCHAR
ENDFONT
